<svg xmlns="http://www.w3.org/2000/svg" width="14" height="8" viewBox="0 0 14 8"><g fill="none"><g fill="currentColor"><path d="M10.3 0.1C10.5 0 10.7 0 10.9 0.1 11 0.2 11 0.5 10.9 0.6L10.9 0.6 4.6 7.9C4.5 8 4.2 8 4.1 7.9L4.1 7.9 0.1 4.7C0 4.6-0.1 4.3 0.1 4.1 0.2 4 0.5 3.9 0.6 4.1L0.6 4.1 4.3 7 10.3 0.1ZM13.6 0C13.7 0 13.8 0 13.9 0.1 13.9 0.2 14 0.3 14 0.4 14 0.5 14 0.6 13.9 0.7L13.9 0.7 7.8 7.9C7.6 8 7.4 8 7.2 7.9L7.2 7.9 6 6.9 6.5 6.3 7.4 7.1 13.3 0.1C13.4 0.1 13.5 0 13.6 0ZM3.1 4.2C3.2 4 3.4 3.9 3.6 4.1L3.6 4.1 5 5.4 4.5 6 3.1 4.7C3 4.6 3 4.3 3.1 4.2Z"/></g></g></svg>
